<svg xmlns="http://www.w3.org/2000/svg" viewBox="0 0 128 128" shape-rendering="crispEdges" role="img" aria-label="glyph"><g fill="currentColor" fill-opacity="1"><rect x="60" y="10" width="4" height="1"/><rect x="59" y="11" width="6" height="1"/><rect x="57" y="12" width="10" height="1"/><rect x="55" y="13" width="7" height="1"/><rect x="66" y="13" width="3" height="1"/><rect x="53" y="14" width="7" height="1"/><rect x="68" y="14" width="3" height="1"/><rect x="51" y="15" width="8" height="1"/><rect x="69" y="15" width="4" height="1"/><rect x="49" y="16" width="8" height="1"/><rect x="71" y="16" width="4" height="1"/><rect x="48" y="17" width="7" height="1"/><rect x="73" y="17" width="3" height="1"/><rect x="46" y="18" width="7" height="1"/><rect x="75" y="18" width="3" height="1"/><rect x="44" y="19" width="7" height="1"/><rect x="77" y="19" width="3" height="1"/><rect x="42" y="20" width="7" height="1"/><rect x="79" y="20" width="3" height="1"/><rect x="40" y="21" width="8" height="1"/><rect x="80" y="21" width="4" height="1"/><rect x="39" y="22" width="7" height="1"/><rect x="82" y="22" width="3" height="1"/><rect x="37" y="23" width="7" height="1"/><rect x="84" y="23" width="3" height="1"/><rect x="35" y="24" width="7" height="1"/><rect x="86" y="24" width="3" height="1"/><rect x="33" y="25" width="7" height="1"/><rect x="88" y="25" width="3" height="1"/><rect x="31" y="26" width="8" height="1"/><rect x="89" y="26" width="4" height="1"/><rect x="30" y="27" width="7" height="1"/><rect x="91" y="27" width="3" height="1"/><rect x="28" y="28" width="7" height="1"/><rect x="93" y="28" width="3" height="1"/><rect x="26" y="29" width="7" height="1"/><rect x="95" y="29" width="3" height="1"/><rect x="24" y="30" width="7" height="1"/><rect x="97" y="30" width="3" height="1"/><rect x="22" y="31" width="8" height="1"/><rect x="98" y="31" width="4" height="1"/><rect x="20" y="32" width="8" height="1"/><rect x="100" y="32" width="4" height="1"/><rect x="19" y="33" width="7" height="1"/><rect x="102" y="33" width="3" height="1"/><rect x="17" y="34" width="7" height="1"/><rect x="104" y="34" width="3" height="1"/><rect x="15" y="35" width="7" height="1"/><rect x="106" y="35" width="3" height="1"/><rect x="15" y="36" width="5" height="1"/><rect x="108" y="36" width="1" height="1"/><rect x="15" y="37" width="4" height="1"/><rect x="15" y="38" width="4" height="1"/><rect x="15" y="39" width="4" height="1"/><rect x="15" y="40" width="4" height="1"/><rect x="15" y="41" width="4" height="1"/><rect x="15" y="42" width="4" height="1"/><rect x="15" y="43" width="4" height="1"/><rect x="15" y="44" width="2" height="1"/><rect x="60" y="44" width="4" height="1"/><rect x="59" y="45" width="6" height="1"/><rect x="57" y="46" width="10" height="1"/><rect x="55" y="47" width="7" height="1"/><rect x="66" y="47" width="3" height="1"/><rect x="53" y="48" width="7" height="1"/><rect x="68" y="48" width="3" height="1"/><rect x="51" y="49" width="8" height="1"/><rect x="69" y="49" width="4" height="1"/><rect x="49" y="50" width="8" height="1"/><rect x="71" y="50" width="4" height="1"/><rect x="48" y="51" width="7" height="1"/><rect x="73" y="51" width="3" height="1"/><rect x="46" y="52" width="7" height="1"/><rect x="75" y="52" width="3" height="1"/><rect x="44" y="53" width="7" height="1"/><rect x="77" y="53" width="3" height="1"/><rect x="42" y="54" width="7" height="1"/><rect x="79" y="54" width="3" height="1"/><rect x="40" y="55" width="8" height="1"/><rect x="80" y="55" width="4" height="1"/><rect x="39" y="56" width="7" height="1"/><rect x="82" y="56" width="3" height="1"/><rect x="37" y="57" width="7" height="1"/><rect x="84" y="57" width="3" height="1"/><rect x="35" y="58" width="7" height="1"/><rect x="86" y="58" width="3" height="1"/><rect x="33" y="59" width="7" height="1"/><rect x="88" y="59" width="3" height="1"/><rect x="31" y="60" width="8" height="1"/><rect x="89" y="60" width="4" height="1"/><rect x="30" y="61" width="7" height="1"/><rect x="91" y="61" width="3" height="1"/><rect x="28" y="62" width="7" height="1"/><rect x="93" y="62" width="3" height="1"/><rect x="26" y="63" width="7" height="1"/><rect x="95" y="63" width="3" height="1"/><rect x="24" y="64" width="7" height="1"/><rect x="97" y="64" width="3" height="1"/><rect x="22" y="65" width="8" height="1"/><rect x="98" y="65" width="4" height="1"/><rect x="20" y="66" width="8" height="1"/><rect x="100" y="66" width="4" height="1"/><rect x="19" y="67" width="7" height="1"/><rect x="102" y="67" width="3" height="1"/><rect x="17" y="68" width="7" height="1"/><rect x="104" y="68" width="3" height="1"/><rect x="15" y="69" width="7" height="1"/><rect x="106" y="69" width="3" height="1"/><rect x="15" y="70" width="5" height="1"/><rect x="108" y="70" width="1" height="1"/><rect x="15" y="71" width="4" height="1"/><rect x="15" y="72" width="4" height="1"/><rect x="15" y="73" width="4" height="1"/><rect x="15" y="74" width="4" height="1"/><rect x="15" y="75" width="4" height="1"/><rect x="15" y="76" width="4" height="1"/><rect x="15" y="77" width="4" height="1"/><rect x="15" y="78" width="2" height="1"/><rect x="60" y="79" width="4" height="1"/><rect x="59" y="80" width="6" height="1"/><rect x="57" y="81" width="10" height="1"/><rect x="55" y="82" width="7" height="1"/><rect x="66" y="82" width="3" height="1"/><rect x="53" y="83" width="7" height="1"/><rect x="68" y="83" width="3" height="1"/><rect x="51" y="84" width="8" height="1"/><rect x="69" y="84" width="4" height="1"/><rect x="49" y="85" width="8" height="1"/><rect x="71" y="85" width="4" height="1"/><rect x="48" y="86" width="7" height="1"/><rect x="73" y="86" width="3" height="1"/><rect x="46" y="87" width="7" height="1"/><rect x="75" y="87" width="3" height="1"/><rect x="44" y="88" width="7" height="1"/><rect x="77" y="88" width="3" height="1"/><rect x="42" y="89" width="7" height="1"/><rect x="79" y="89" width="3" height="1"/><rect x="40" y="90" width="8" height="1"/><rect x="80" y="90" width="4" height="1"/><rect x="39" y="91" width="7" height="1"/><rect x="82" y="91" width="3" height="1"/><rect x="37" y="92" width="7" height="1"/><rect x="84" y="92" width="3" height="1"/><rect x="35" y="93" width="7" height="1"/><rect x="86" y="93" width="3" height="1"/><rect x="33" y="94" width="7" height="1"/><rect x="88" y="94" width="3" height="1"/><rect x="31" y="95" width="8" height="1"/><rect x="89" y="95" width="4" height="1"/><rect x="30" y="96" width="7" height="1"/><rect x="91" y="96" width="3" height="1"/><rect x="28" y="97" width="7" height="1"/><rect x="93" y="97" width="3" height="1"/><rect x="26" y="98" width="7" height="1"/><rect x="95" y="98" width="3" height="1"/><rect x="24" y="99" width="7" height="1"/><rect x="97" y="99" width="3" height="1"/><rect x="22" y="100" width="8" height="1"/><rect x="98" y="100" width="4" height="1"/><rect x="20" y="101" width="8" height="1"/><rect x="100" y="101" width="4" height="1"/><rect x="19" y="102" width="7" height="1"/><rect x="102" y="102" width="3" height="1"/><rect x="17" y="103" width="7" height="1"/><rect x="104" y="103" width="3" height="1"/><rect x="15" y="104" width="7" height="1"/><rect x="106" y="104" width="3" height="1"/><rect x="15" y="105" width="5" height="1"/><rect x="108" y="105" width="1" height="1"/><rect x="15" y="106" width="4" height="1"/><rect x="15" y="107" width="4" height="1"/><rect x="15" y="108" width="4" height="1"/><rect x="15" y="109" width="4" height="1"/><rect x="15" y="110" width="4" height="1"/><rect x="15" y="111" width="4" height="1"/><rect x="15" y="112" width="4" height="1"/><rect x="15" y="113" width="2" height="1"/></g><g fill="currentColor" fill-opacity="0.86"><rect x="62" y="9" width="4" height="1"/><rect x="64" y="10" width="4" height="1"/><rect x="65" y="11" width="4" height="1"/><rect x="67" y="12" width="4" height="1"/><rect x="62" y="13" width="4" height="1"/><rect x="69" y="13" width="4" height="1"/><rect x="60" y="14" width="8" height="1"/><rect x="71" y="14" width="4" height="1"/><rect x="59" y="15" width="10" height="1"/><rect x="73" y="15" width="4" height="1"/><rect x="57" y="16" width="14" height="1"/><rect x="75" y="16" width="4" height="1"/><rect x="55" y="17" width="18" height="1"/><rect x="76" y="17" width="4" height="1"/><rect x="53" y="18" width="22" height="1"/><rect x="78" y="18" width="4" height="1"/><rect x="51" y="19" width="11" height="1"/><rect x="66" y="19" width="11" height="1"/><rect x="80" y="19" width="4" height="1"/><rect x="49" y="20" width="11" height="1"/><rect x="68" y="20" width="11" height="1"/><rect x="82" y="20" width="4" height="1"/><rect x="48" y="21" width="11" height="1"/><rect x="69" y="21" width="11" height="1"/><rect x="84" y="21" width="4" height="1"/><rect x="46" y="22" width="11" height="1"/><rect x="71" y="22" width="11" height="1"/><rect x="85" y="22" width="4" height="1"/><rect x="44" y="23" width="11" height="1"/><rect x="66" y="23" width="4" height="1"/><rect x="73" y="23" width="11" height="1"/><rect x="87" y="23" width="4" height="1"/><rect x="42" y="24" width="11" height="1"/><rect x="68" y="24" width="4" height="1"/><rect x="75" y="24" width="11" height="1"/><rect x="89" y="24" width="4" height="1"/><rect x="40" y="25" width="11" height="1"/><rect x="69" y="25" width="4" height="1"/><rect x="77" y="25" width="11" height="1"/><rect x="91" y="25" width="4" height="1"/><rect x="39" y="26" width="10" height="1"/><rect x="71" y="26" width="4" height="1"/><rect x="79" y="26" width="10" height="1"/><rect x="93" y="26" width="4" height="1"/><rect x="37" y="27" width="11" height="1"/><rect x="73" y="27" width="4" height="1"/><rect x="80" y="27" width="11" height="1"/><rect x="94" y="27" width="4" height="1"/><rect x="35" y="28" width="11" height="1"/><rect x="75" y="28" width="4" height="1"/><rect x="82" y="28" width="11" height="1"/><rect x="96" y="28" width="4" height="1"/><rect x="33" y="29" width="11" height="1"/><rect x="77" y="29" width="4" height="1"/><rect x="84" y="29" width="11" height="1"/><rect x="98" y="29" width="4" height="1"/><rect x="31" y="30" width="11" height="1"/><rect x="79" y="30" width="4" height="1"/><rect x="86" y="30" width="11" height="1"/><rect x="100" y="30" width="4" height="1"/><rect x="30" y="31" width="10" height="1"/><rect x="80" y="31" width="4" height="1"/><rect x="88" y="31" width="10" height="1"/><rect x="102" y="31" width="4" height="1"/><rect x="28" y="32" width="11" height="1"/><rect x="82" y="32" width="4" height="1"/><rect x="89" y="32" width="11" height="1"/><rect x="104" y="32" width="4" height="1"/><rect x="26" y="33" width="11" height="1"/><rect x="84" y="33" width="4" height="1"/><rect x="91" y="33" width="11" height="1"/><rect x="105" y="33" width="4" height="1"/><rect x="24" y="34" width="11" height="1"/><rect x="86" y="34" width="4" height="1"/><rect x="93" y="34" width="11" height="1"/><rect x="107" y="34" width="4" height="1"/><rect x="22" y="35" width="11" height="1"/><rect x="88" y="35" width="4" height="1"/><rect x="95" y="35" width="11" height="1"/><rect x="109" y="35" width="4" height="1"/><rect x="20" y="36" width="11" height="1"/><rect x="89" y="36" width="4" height="1"/><rect x="97" y="36" width="11" height="1"/><rect x="109" y="36" width="4" height="1"/><rect x="19" y="37" width="11" height="1"/><rect x="91" y="37" width="4" height="1"/><rect x="98" y="37" width="15" height="1"/><rect x="19" y="38" width="9" height="1"/><rect x="93" y="38" width="4" height="1"/><rect x="100" y="38" width="9" height="1"/><rect x="111" y="38" width="2" height="1"/><rect x="19" y="39" width="7" height="1"/><rect x="95" y="39" width="4" height="1"/><rect x="102" y="39" width="7" height="1"/><rect x="19" y="40" width="5" height="1"/><rect x="97" y="40" width="4" height="1"/><rect x="104" y="40" width="5" height="1"/><rect x="19" y="41" width="3" height="1"/><rect x="98" y="41" width="4" height="1"/><rect x="106" y="41" width="3" height="1"/><rect x="19" y="42" width="1" height="1"/><rect x="100" y="42" width="4" height="1"/><rect x="108" y="42" width="1" height="1"/><rect x="62" y="43" width="4" height="1"/><rect x="102" y="43" width="4" height="1"/><rect x="17" y="44" width="2" height="1"/><rect x="64" y="44" width="4" height="1"/><rect x="104" y="44" width="4" height="1"/><rect x="15" y="45" width="4" height="1"/><rect x="65" y="45" width="4" height="1"/><rect x="106" y="45" width="4" height="1"/><rect x="15" y="46" width="4" height="1"/><rect x="67" y="46" width="4" height="1"/><rect x="108" y="46" width="4" height="1"/><rect x="15" y="47" width="4" height="1"/><rect x="62" y="47" width="4" height="1"/><rect x="69" y="47" width="4" height="1"/><rect x="109" y="47" width="4" height="1"/><rect x="15" y="48" width="2" height="1"/><rect x="60" y="48" width="8" height="1"/><rect x="71" y="48" width="4" height="1"/><rect x="111" y="48" width="2" height="1"/><rect x="59" y="49" width="10" height="1"/><rect x="73" y="49" width="4" height="1"/><rect x="57" y="50" width="14" height="1"/><rect x="75" y="50" width="4" height="1"/><rect x="55" y="51" width="18" height="1"/><rect x="76" y="51" width="4" height="1"/><rect x="53" y="52" width="22" height="1"/><rect x="78" y="52" width="4" height="1"/><rect x="51" y="53" width="11" height="1"/><rect x="66" y="53" width="11" height="1"/><rect x="80" y="53" width="4" height="1"/><rect x="49" y="54" width="11" height="1"/><rect x="68" y="54" width="11" height="1"/><rect x="82" y="54" width="4" height="1"/><rect x="48" y="55" width="11" height="1"/><rect x="69" y="55" width="11" height="1"/><rect x="84" y="55" width="4" height="1"/><rect x="46" y="56" width="11" height="1"/><rect x="71" y="56" width="11" height="1"/><rect x="85" y="56" width="4" height="1"/><rect x="44" y="57" width="11" height="1"/><rect x="66" y="57" width="4" height="1"/><rect x="73" y="57" width="11" height="1"/><rect x="87" y="57" width="4" height="1"/><rect x="42" y="58" width="11" height="1"/><rect x="68" y="58" width="4" height="1"/><rect x="75" y="58" width="11" height="1"/><rect x="89" y="58" width="4" height="1"/><rect x="40" y="59" width="11" height="1"/><rect x="69" y="59" width="4" height="1"/><rect x="77" y="59" width="11" height="1"/><rect x="91" y="59" width="4" height="1"/><rect x="39" y="60" width="10" height="1"/><rect x="71" y="60" width="4" height="1"/><rect x="79" y="60" width="10" height="1"/><rect x="93" y="60" width="4" height="1"/><rect x="37" y="61" width="11" height="1"/><rect x="73" y="61" width="4" height="1"/><rect x="80" y="61" width="11" height="1"/><rect x="94" y="61" width="4" height="1"/><rect x="35" y="62" width="11" height="1"/><rect x="75" y="62" width="4" height="1"/><rect x="82" y="62" width="11" height="1"/><rect x="96" y="62" width="4" height="1"/><rect x="33" y="63" width="11" height="1"/><rect x="77" y="63" width="4" height="1"/><rect x="84" y="63" width="11" height="1"/><rect x="98" y="63" width="4" height="1"/><rect x="31" y="64" width="11" height="1"/><rect x="79" y="64" width="4" height="1"/><rect x="86" y="64" width="11" height="1"/><rect x="100" y="64" width="4" height="1"/><rect x="30" y="65" width="10" height="1"/><rect x="80" y="65" width="4" height="1"/><rect x="88" y="65" width="10" height="1"/><rect x="102" y="65" width="4" height="1"/><rect x="28" y="66" width="11" height="1"/><rect x="82" y="66" width="4" height="1"/><rect x="89" y="66" width="11" height="1"/><rect x="104" y="66" width="4" height="1"/><rect x="26" y="67" width="11" height="1"/><rect x="84" y="67" width="4" height="1"/><rect x="91" y="67" width="11" height="1"/><rect x="105" y="67" width="4" height="1"/><rect x="24" y="68" width="11" height="1"/><rect x="86" y="68" width="4" height="1"/><rect x="93" y="68" width="11" height="1"/><rect x="107" y="68" width="4" height="1"/><rect x="22" y="69" width="11" height="1"/><rect x="88" y="69" width="4" height="1"/><rect x="95" y="69" width="11" height="1"/><rect x="109" y="69" width="4" height="1"/><rect x="20" y="70" width="11" height="1"/><rect x="89" y="70" width="4" height="1"/><rect x="97" y="70" width="11" height="1"/><rect x="109" y="70" width="4" height="1"/><rect x="19" y="71" width="11" height="1"/><rect x="91" y="71" width="4" height="1"/><rect x="98" y="71" width="15" height="1"/><rect x="19" y="72" width="9" height="1"/><rect x="93" y="72" width="4" height="1"/><rect x="100" y="72" width="9" height="1"/><rect x="111" y="72" width="2" height="1"/><rect x="19" y="73" width="7" height="1"/><rect x="95" y="73" width="4" height="1"/><rect x="102" y="73" width="7" height="1"/><rect x="19" y="74" width="5" height="1"/><rect x="97" y="74" width="4" height="1"/><rect x="104" y="74" width="5" height="1"/><rect x="19" y="75" width="3" height="1"/><rect x="98" y="75" width="4" height="1"/><rect x="106" y="75" width="3" height="1"/><rect x="19" y="76" width="1" height="1"/><rect x="100" y="76" width="4" height="1"/><rect x="108" y="76" width="1" height="1"/><rect x="102" y="77" width="4" height="1"/><rect x="17" y="78" width="2" height="1"/><rect x="62" y="78" width="4" height="1"/><rect x="104" y="78" width="4" height="1"/><rect x="15" y="79" width="4" height="1"/><rect x="64" y="79" width="4" height="1"/><rect x="106" y="79" width="4" height="1"/><rect x="15" y="80" width="4" height="1"/><rect x="65" y="80" width="4" height="1"/><rect x="108" y="80" width="4" height="1"/><rect x="15" y="81" width="4" height="1"/><rect x="67" y="81" width="4" height="1"/><rect x="109" y="81" width="4" height="1"/><rect x="15" y="82" width="2" height="1"/><rect x="62" y="82" width="4" height="1"/><rect x="69" y="82" width="4" height="1"/><rect x="111" y="82" width="2" height="1"/><rect x="60" y="83" width="8" height="1"/><rect x="71" y="83" width="4" height="1"/><rect x="59" y="84" width="10" height="1"/><rect x="73" y="84" width="4" height="1"/><rect x="57" y="85" width="14" height="1"/><rect x="75" y="85" width="4" height="1"/><rect x="55" y="86" width="18" height="1"/><rect x="76" y="86" width="4" height="1"/><rect x="53" y="87" width="22" height="1"/><rect x="78" y="87" width="4" height="1"/><rect x="51" y="88" width="11" height="1"/><rect x="66" y="88" width="11" height="1"/><rect x="80" y="88" width="4" height="1"/><rect x="49" y="89" width="11" height="1"/><rect x="68" y="89" width="11" height="1"/><rect x="82" y="89" width="4" height="1"/><rect x="48" y="90" width="11" height="1"/><rect x="69" y="90" width="11" height="1"/><rect x="84" y="90" width="4" height="1"/><rect x="46" y="91" width="11" height="1"/><rect x="71" y="91" width="11" height="1"/><rect x="85" y="91" width="4" height="1"/><rect x="44" y="92" width="11" height="1"/><rect x="66" y="92" width="4" height="1"/><rect x="73" y="92" width="11" height="1"/><rect x="87" y="92" width="4" height="1"/><rect x="42" y="93" width="11" height="1"/><rect x="68" y="93" width="4" height="1"/><rect x="75" y="93" width="11" height="1"/><rect x="89" y="93" width="4" height="1"/><rect x="40" y="94" width="11" height="1"/><rect x="69" y="94" width="4" height="1"/><rect x="77" y="94" width="11" height="1"/><rect x="91" y="94" width="4" height="1"/><rect x="39" y="95" width="10" height="1"/><rect x="71" y="95" width="4" height="1"/><rect x="79" y="95" width="10" height="1"/><rect x="93" y="95" width="4" height="1"/><rect x="37" y="96" width="11" height="1"/><rect x="73" y="96" width="4" height="1"/><rect x="80" y="96" width="11" height="1"/><rect x="94" y="96" width="4" height="1"/><rect x="35" y="97" width="11" height="1"/><rect x="75" y="97" width="4" height="1"/><rect x="82" y="97" width="11" height="1"/><rect x="96" y="97" width="4" height="1"/><rect x="33" y="98" width="11" height="1"/><rect x="77" y="98" width="4" height="1"/><rect x="84" y="98" width="11" height="1"/><rect x="98" y="98" width="4" height="1"/><rect x="31" y="99" width="11" height="1"/><rect x="79" y="99" width="4" height="1"/><rect x="86" y="99" width="11" height="1"/><rect x="100" y="99" width="4" height="1"/><rect x="30" y="100" width="10" height="1"/><rect x="80" y="100" width="4" height="1"/><rect x="88" y="100" width="10" height="1"/><rect x="102" y="100" width="4" height="1"/><rect x="28" y="101" width="11" height="1"/><rect x="82" y="101" width="4" height="1"/><rect x="89" y="101" width="11" height="1"/><rect x="104" y="101" width="4" height="1"/><rect x="26" y="102" width="11" height="1"/><rect x="84" y="102" width="4" height="1"/><rect x="91" y="102" width="11" height="1"/><rect x="105" y="102" width="4" height="1"/><rect x="24" y="103" width="11" height="1"/><rect x="86" y="103" width="4" height="1"/><rect x="93" y="103" width="11" height="1"/><rect x="107" y="103" width="4" height="1"/><rect x="22" y="104" width="11" height="1"/><rect x="88" y="104" width="4" height="1"/><rect x="95" y="104" width="11" height="1"/><rect x="109" y="104" width="4" height="1"/><rect x="20" y="105" width="11" height="1"/><rect x="89" y="105" width="4" height="1"/><rect x="97" y="105" width="11" height="1"/><rect x="109" y="105" width="4" height="1"/><rect x="19" y="106" width="11" height="1"/><rect x="91" y="106" width="4" height="1"/><rect x="98" y="106" width="15" height="1"/><rect x="19" y="107" width="9" height="1"/><rect x="93" y="107" width="4" height="1"/><rect x="100" y="107" width="9" height="1"/><rect x="111" y="107" width="2" height="1"/><rect x="19" y="108" width="7" height="1"/><rect x="95" y="108" width="4" height="1"/><rect x="102" y="108" width="7" height="1"/><rect x="19" y="109" width="5" height="1"/><rect x="97" y="109" width="4" height="1"/><rect x="104" y="109" width="5" height="1"/><rect x="19" y="110" width="3" height="1"/><rect x="98" y="110" width="4" height="1"/><rect x="106" y="110" width="3" height="1"/><rect x="19" y="111" width="1" height="1"/><rect x="100" y="111" width="4" height="1"/><rect x="108" y="111" width="1" height="1"/><rect x="102" y="112" width="4" height="1"/><rect x="17" y="113" width="2" height="1"/><rect x="104" y="113" width="4" height="1"/><rect x="15" y="114" width="4" height="1"/><rect x="106" y="114" width="4" height="1"/><rect x="15" y="115" width="4" height="1"/><rect x="108" y="115" width="4" height="1"/><rect x="15" y="116" width="4" height="1"/><rect x="109" y="116" width="4" height="1"/><rect x="15" y="117" width="2" height="1"/><rect x="111" y="117" width="2" height="1"/></g><g fill="currentColor" fill-opacity="0.5"><rect x="62" y="19" width="4" height="1"/><rect x="60" y="20" width="8" height="1"/><rect x="59" y="21" width="10" height="1"/><rect x="57" y="22" width="14" height="1"/><rect x="55" y="23" width="7" height="1"/><rect x="70" y="23" width="3" height="1"/><rect x="53" y="24" width="7" height="1"/><rect x="72" y="24" width="3" height="1"/><rect x="51" y="25" width="8" height="1"/><rect x="73" y="25" width="4" height="1"/><rect x="49" y="26" width="8" height="1"/><rect x="75" y="26" width="4" height="1"/><rect x="48" y="27" width="7" height="1"/><rect x="77" y="27" width="3" height="1"/><rect x="46" y="28" width="7" height="1"/><rect x="79" y="28" width="3" height="1"/><rect x="44" y="29" width="7" height="1"/><rect x="81" y="29" width="3" height="1"/><rect x="42" y="30" width="7" height="1"/><rect x="83" y="30" width="3" height="1"/><rect x="40" y="31" width="8" height="1"/><rect x="84" y="31" width="4" height="1"/><rect x="39" y="32" width="7" height="1"/><rect x="86" y="32" width="3" height="1"/><rect x="37" y="33" width="7" height="1"/><rect x="88" y="33" width="3" height="1"/><rect x="35" y="34" width="7" height="1"/><rect x="90" y="34" width="3" height="1"/><rect x="33" y="35" width="7" height="1"/><rect x="92" y="35" width="3" height="1"/><rect x="31" y="36" width="8" height="1"/><rect x="93" y="36" width="4" height="1"/><rect x="30" y="37" width="7" height="1"/><rect x="95" y="37" width="3" height="1"/><rect x="28" y="38" width="7" height="1"/><rect x="97" y="38" width="3" height="1"/><rect x="109" y="38" width="2" height="1"/><rect x="26" y="39" width="7" height="1"/><rect x="99" y="39" width="3" height="1"/><rect x="109" y="39" width="4" height="1"/><rect x="24" y="40" width="7" height="1"/><rect x="101" y="40" width="3" height="1"/><rect x="109" y="40" width="4" height="1"/><rect x="22" y="41" width="8" height="1"/><rect x="102" y="41" width="4" height="1"/><rect x="109" y="41" width="4" height="1"/><rect x="20" y="42" width="8" height="1"/><rect x="104" y="42" width="4" height="1"/><rect x="109" y="42" width="4" height="1"/><rect x="19" y="43" width="7" height="1"/><rect x="106" y="43" width="7" height="1"/><rect x="19" y="44" width="5" height="1"/><rect x="108" y="44" width="5" height="1"/><rect x="19" y="45" width="3" height="1"/><rect x="110" y="45" width="3" height="1"/><rect x="19" y="46" width="1" height="1"/><rect x="112" y="46" width="1" height="1"/><rect x="62" y="53" width="4" height="1"/><rect x="60" y="54" width="8" height="1"/><rect x="59" y="55" width="10" height="1"/><rect x="57" y="56" width="14" height="1"/><rect x="55" y="57" width="7" height="1"/><rect x="70" y="57" width="3" height="1"/><rect x="53" y="58" width="7" height="1"/><rect x="72" y="58" width="3" height="1"/><rect x="51" y="59" width="8" height="1"/><rect x="73" y="59" width="4" height="1"/><rect x="49" y="60" width="8" height="1"/><rect x="75" y="60" width="4" height="1"/><rect x="48" y="61" width="7" height="1"/><rect x="77" y="61" width="3" height="1"/><rect x="46" y="62" width="7" height="1"/><rect x="79" y="62" width="3" height="1"/><rect x="44" y="63" width="7" height="1"/><rect x="81" y="63" width="3" height="1"/><rect x="42" y="64" width="7" height="1"/><rect x="83" y="64" width="3" height="1"/><rect x="40" y="65" width="8" height="1"/><rect x="84" y="65" width="4" height="1"/><rect x="39" y="66" width="7" height="1"/><rect x="86" y="66" width="3" height="1"/><rect x="37" y="67" width="7" height="1"/><rect x="88" y="67" width="3" height="1"/><rect x="35" y="68" width="7" height="1"/><rect x="90" y="68" width="3" height="1"/><rect x="33" y="69" width="7" height="1"/><rect x="92" y="69" width="3" height="1"/><rect x="31" y="70" width="8" height="1"/><rect x="93" y="70" width="4" height="1"/><rect x="30" y="71" width="7" height="1"/><rect x="95" y="71" width="3" height="1"/><rect x="28" y="72" width="7" height="1"/><rect x="97" y="72" width="3" height="1"/><rect x="109" y="72" width="2" height="1"/><rect x="26" y="73" width="7" height="1"/><rect x="99" y="73" width="3" height="1"/><rect x="109" y="73" width="4" height="1"/><rect x="24" y="74" width="7" height="1"/><rect x="101" y="74" width="3" height="1"/><rect x="109" y="74" width="4" height="1"/><rect x="22" y="75" width="8" height="1"/><rect x="102" y="75" width="4" height="1"/><rect x="109" y="75" width="4" height="1"/><rect x="20" y="76" width="8" height="1"/><rect x="104" y="76" width="4" height="1"/><rect x="109" y="76" width="4" height="1"/><rect x="19" y="77" width="7" height="1"/><rect x="106" y="77" width="7" height="1"/><rect x="19" y="78" width="5" height="1"/><rect x="108" y="78" width="5" height="1"/><rect x="19" y="79" width="3" height="1"/><rect x="110" y="79" width="3" height="1"/><rect x="19" y="80" width="1" height="1"/><rect x="112" y="80" width="1" height="1"/><rect x="62" y="88" width="4" height="1"/><rect x="60" y="89" width="8" height="1"/><rect x="59" y="90" width="10" height="1"/><rect x="57" y="91" width="14" height="1"/><rect x="55" y="92" width="7" height="1"/><rect x="70" y="92" width="3" height="1"/><rect x="53" y="93" width="7" height="1"/><rect x="72" y="93" width="3" height="1"/><rect x="51" y="94" width="8" height="1"/><rect x="73" y="94" width="4" height="1"/><rect x="49" y="95" width="8" height="1"/><rect x="75" y="95" width="4" height="1"/><rect x="48" y="96" width="7" height="1"/><rect x="77" y="96" width="3" height="1"/><rect x="46" y="97" width="7" height="1"/><rect x="79" y="97" width="3" height="1"/><rect x="44" y="98" width="7" height="1"/><rect x="81" y="98" width="3" height="1"/><rect x="42" y="99" width="7" height="1"/><rect x="83" y="99" width="3" height="1"/><rect x="40" y="100" width="8" height="1"/><rect x="84" y="100" width="4" height="1"/><rect x="39" y="101" width="7" height="1"/><rect x="86" y="101" width="3" height="1"/><rect x="37" y="102" width="7" height="1"/><rect x="88" y="102" width="3" height="1"/><rect x="35" y="103" width="7" height="1"/><rect x="90" y="103" width="3" height="1"/><rect x="33" y="104" width="7" height="1"/><rect x="92" y="104" width="3" height="1"/><rect x="31" y="105" width="8" height="1"/><rect x="93" y="105" width="4" height="1"/><rect x="30" y="106" width="7" height="1"/><rect x="95" y="106" width="3" height="1"/><rect x="28" y="107" width="7" height="1"/><rect x="97" y="107" width="3" height="1"/><rect x="109" y="107" width="2" height="1"/><rect x="26" y="108" width="7" height="1"/><rect x="99" y="108" width="3" height="1"/><rect x="109" y="108" width="4" height="1"/><rect x="24" y="109" width="7" height="1"/><rect x="101" y="109" width="3" height="1"/><rect x="109" y="109" width="4" height="1"/><rect x="22" y="110" width="8" height="1"/><rect x="102" y="110" width="4" height="1"/><rect x="109" y="110" width="4" height="1"/><rect x="20" y="111" width="8" height="1"/><rect x="104" y="111" width="4" height="1"/><rect x="109" y="111" width="4" height="1"/><rect x="19" y="112" width="7" height="1"/><rect x="106" y="112" width="7" height="1"/><rect x="19" y="113" width="5" height="1"/><rect x="108" y="113" width="5" height="1"/><rect x="19" y="114" width="3" height="1"/><rect x="110" y="114" width="3" height="1"/><rect x="19" y="115" width="1" height="1"/><rect x="112" y="115" width="1" height="1"/></g></svg>