<svg xmlns="http://www.w3.org/2000/svg" viewBox="0 0 32 32" shape-rendering="crispEdges" role="img" aria-label="armored"><g fill="#c1c3d4"><rect x="13" y="3" width="6" height="1"/><rect x="12" y="4" width="8" height="1"/><rect x="12" y="5" width="8" height="1"/><rect x="12" y="6" width="8" height="1"/><rect x="12" y="7" width="8" height="1"/><rect x="12" y="8" width="2" height="1"/><rect x="18" y="8" width="2" height="1"/><rect x="12" y="9" width="2" height="1"/><rect x="18" y="9" width="2" height="1"/><rect x="12" y="10" width="8" height="1"/><rect x="12" y="11" width="8" height="1"/><rect x="12" y="12" width="8" height="1"/><rect x="12" y="13" width="8" height="1"/><rect x="12" y="14" width="2" height="1"/><rect x="18" y="14" width="2" height="1"/><rect x="12" y="15" width="2" height="1"/><rect x="18" y="15" width="2" height="1"/><rect x="12" y="16" width="8" height="1"/><rect x="12" y="17" width="8" height="1"/><rect x="12" y="18" width="8" height="1"/><rect x="12" y="19" width="8" height="1"/><rect x="12" y="20" width="2" height="1"/><rect x="18" y="20" width="2" height="1"/><rect x="12" y="21" width="2" height="1"/><rect x="18" y="21" width="2" height="1"/><rect x="12" y="22" width="8" height="1"/><rect x="12" y="23" width="8" height="1"/><rect x="12" y="24" width="8" height="1"/><rect x="12" y="25" width="8" height="1"/></g><g fill="#7b7b7b"><rect x="10" y="4" width="1" height="1"/><rect x="21" y="4" width="1" height="1"/><rect x="7" y="5" width="4" height="1"/><rect x="21" y="5" width="4" height="1"/><rect x="4" y="6" width="7" height="1"/><rect x="21" y="6" width="7" height="1"/><rect x="4" y="7" width="7" height="1"/><rect x="21" y="7" width="7" height="1"/><rect x="4" y="8" width="7" height="1"/><rect x="21" y="8" width="7" height="1"/><rect x="4" y="9" width="7" height="1"/><rect x="21" y="9" width="7" height="1"/><rect x="4" y="10" width="7" height="1"/><rect x="21" y="10" width="7" height="1"/><rect x="4" y="11" width="7" height="1"/><rect x="21" y="11" width="7" height="1"/><rect x="4" y="12" width="7" height="1"/><rect x="21" y="12" width="7" height="1"/><rect x="4" y="13" width="7" height="1"/><rect x="21" y="13" width="7" height="1"/><rect x="4" y="14" width="7" height="1"/><rect x="21" y="14" width="7" height="1"/><rect x="4" y="15" width="7" height="1"/><rect x="21" y="15" width="7" height="1"/><rect x="4" y="16" width="7" height="1"/><rect x="21" y="16" width="7" height="1"/><rect x="4" y="17" width="7" height="1"/><rect x="21" y="17" width="7" height="1"/><rect x="5" y="18" width="6" height="1"/><rect x="21" y="18" width="6" height="1"/><rect x="6" y="19" width="5" height="1"/><rect x="21" y="19" width="5" height="1"/><rect x="7" y="20" width="4" height="1"/><rect x="21" y="20" width="4" height="1"/><rect x="8" y="21" width="3" height="1"/><rect x="21" y="21" width="3" height="1"/><rect x="9" y="22" width="2" height="1"/><rect x="21" y="22" width="2" height="1"/><rect x="10" y="23" width="1" height="1"/><rect x="21" y="23" width="1" height="1"/><rect x="10" y="24" width="1" height="1"/><rect x="21" y="24" width="1" height="1"/></g><g fill="#2c2d38"><rect x="11" y="4" width="1" height="1"/><rect x="20" y="4" width="1" height="1"/><rect x="11" y="5" width="1" height="1"/><rect x="20" y="5" width="1" height="1"/><rect x="11" y="6" width="1" height="1"/><rect x="20" y="6" width="1" height="1"/><rect x="11" y="7" width="1" height="1"/><rect x="20" y="7" width="1" height="1"/><rect x="11" y="8" width="1" height="1"/><rect x="20" y="8" width="1" height="1"/><rect x="11" y="9" width="1" height="1"/><rect x="20" y="9" width="1" height="1"/><rect x="11" y="10" width="1" height="1"/><rect x="20" y="10" width="1" height="1"/><rect x="11" y="11" width="1" height="1"/><rect x="20" y="11" width="1" height="1"/><rect x="11" y="12" width="1" height="1"/><rect x="20" y="12" width="1" height="1"/><rect x="11" y="13" width="1" height="1"/><rect x="20" y="13" width="1" height="1"/><rect x="11" y="14" width="1" height="1"/><rect x="20" y="14" width="1" height="1"/><rect x="11" y="15" width="1" height="1"/><rect x="20" y="15" width="1" height="1"/><rect x="11" y="16" width="1" height="1"/><rect x="20" y="16" width="1" height="1"/><rect x="11" y="17" width="1" height="1"/><rect x="20" y="17" width="1" height="1"/><rect x="11" y="18" width="1" height="1"/><rect x="20" y="18" width="1" height="1"/><rect x="11" y="19" width="1" height="1"/><rect x="20" y="19" width="1" height="1"/><rect x="11" y="20" width="1" height="1"/><rect x="20" y="20" width="1" height="1"/><rect x="11" y="21" width="1" height="1"/><rect x="20" y="21" width="1" height="1"/><rect x="11" y="22" width="1" height="1"/><rect x="20" y="22" width="1" height="1"/><rect x="11" y="23" width="1" height="1"/><rect x="20" y="23" width="1" height="1"/><rect x="11" y="24" width="1" height="1"/><rect x="20" y="24" width="1" height="1"/><rect x="11" y="25" width="1" height="1"/><rect x="20" y="25" width="1" height="1"/></g><g fill="#f4f4f4"><rect x="14" y="8" width="4" height="1"/><rect x="14" y="9" width="4" height="1"/><rect x="14" y="14" width="4" height="1"/><rect x="14" y="15" width="4" height="1"/><rect x="14" y="20" width="4" height="1"/><rect x="14" y="21" width="4" height="1"/></g><g fill="#4d4e58"><rect x="12" y="26" width="8" height="1"/><rect x="13" y="27" width="6" height="1"/><rect x="14" y="28" width="4" height="1"/><rect x="15" y="29" width="2" height="1"/></g></svg>