<svg xmlns="http://www.w3.org/2000/svg" viewBox="0 0 32 32" shape-rendering="crispEdges" role="img" aria-label="glyph"><g fill="#ffc7e6"><rect x="14" y="3" width="4" height="1"/><rect x="13" y="4" width="6" height="1"/><rect x="11" y="5" width="10" height="1"/><rect x="9" y="6" width="5" height="1"/><rect x="18" y="6" width="5" height="1"/><rect x="7" y="7" width="6" height="1"/><rect x="19" y="7" width="6" height="1"/><rect x="6" y="8" width="5" height="1"/><rect x="21" y="8" width="5" height="1"/><rect x="4" y="9" width="5" height="1"/><rect x="23" y="9" width="5" height="1"/><rect x="4" y="10" width="3" height="1"/><rect x="25" y="10" width="3" height="1"/><rect x="4" y="11" width="2" height="1"/><rect x="26" y="11" width="2" height="1"/></g><g fill="#ff8acb"><rect x="14" y="12" width="4" height="1"/><rect x="12" y="13" width="8" height="1"/><rect x="10" y="14" width="12" height="1"/><rect x="8" y="15" width="6" height="1"/><rect x="18" y="15" width="6" height="1"/><rect x="6" y="16" width="7" height="1"/><rect x="19" y="16" width="7" height="1"/><rect x="4" y="17" width="7" height="1"/><rect x="21" y="17" width="7" height="1"/><rect x="4" y="18" width="5" height="1"/><rect x="23" y="18" width="5" height="1"/><rect x="4" y="19" width="3" height="1"/><rect x="25" y="19" width="3" height="1"/><rect x="4" y="20" width="2" height="1"/><rect x="26" y="20" width="2" height="1"/></g><g fill="#c25a97"><rect x="14" y="20" width="4" height="1"/><rect x="13" y="21" width="6" height="1"/><rect x="11" y="22" width="10" height="1"/><rect x="9" y="23" width="14" height="1"/><rect x="7" y="24" width="7" height="1"/><rect x="18" y="24" width="7" height="1"/><rect x="6" y="25" width="6" height="1"/><rect x="20" y="25" width="6" height="1"/><rect x="4" y="26" width="6" height="1"/><rect x="22" y="26" width="6" height="1"/><rect x="4" y="27" width="4" height="1"/><rect x="24" y="27" width="4" height="1"/><rect x="4" y="28" width="2" height="1"/><rect x="26" y="28" width="2" height="1"/></g></svg>