<svg xmlns="http://www.w3.org/2000/svg" viewBox="0 0 64 64" shape-rendering="crispEdges" role="img" aria-label="hungry"><g fill="currentColor" fill-opacity="1"><rect x="25" y="4" width="13" height="1"/><rect x="22" y="5" width="10" height="1"/><rect x="33" y="5" width="8" height="1"/><rect x="20" y="6" width="5" height="1"/><rect x="40" y="6" width="3" height="1"/><rect x="18" y="7" width="4" height="1"/><rect x="43" y="7" width="2" height="1"/><rect x="16" y="8" width="4" height="1"/><rect x="45" y="8" width="2" height="1"/><rect x="15" y="9" width="3" height="1"/><rect x="47" y="9" width="1" height="1"/><rect x="14" y="10" width="2" height="1"/><rect x="12" y="11" width="3" height="1"/><rect x="50" y="11" width="1" height="1"/><rect x="11" y="12" width="3" height="1"/><rect x="51" y="12" width="1" height="1"/><rect x="11" y="13" width="2" height="1"/><rect x="10" y="14" width="2" height="1"/><rect x="9" y="15" width="2" height="1"/><rect x="8" y="16" width="2" height="1"/><rect x="8" y="17" width="2" height="1"/><rect x="7" y="18" width="2" height="1"/><rect x="7" y="19" width="2" height="1"/><rect x="6" y="20" width="2" height="1"/><rect x="6" y="21" width="2" height="1"/><rect x="5" y="22" width="2" height="1"/><rect x="5" y="23" width="2" height="1"/><rect x="5" y="24" width="2" height="1"/><rect x="4" y="25" width="2" height="1"/><rect x="4" y="26" width="2" height="1"/><rect x="4" y="27" width="2" height="1"/><rect x="4" y="28" width="2" height="1"/><rect x="4" y="29" width="2" height="1"/><rect x="4" y="30" width="2" height="1"/><rect x="4" y="31" width="2" height="1"/><rect x="4" y="32" width="1" height="1"/><rect x="4" y="33" width="2" height="1"/><rect x="4" y="34" width="2" height="1"/><rect x="32" y="34" width="1" height="1"/><rect x="4" y="35" width="2" height="1"/><rect x="33" y="35" width="1" height="1"/><rect x="4" y="36" width="2" height="1"/><rect x="4" y="37" width="2" height="1"/><rect x="36" y="37" width="1" height="1"/><rect x="5" y="38" width="1" height="1"/><rect x="37" y="38" width="1" height="1"/><rect x="5" y="39" width="1" height="1"/><rect x="5" y="40" width="2" height="1"/><rect x="40" y="40" width="1" height="1"/><rect x="6" y="41" width="1" height="1"/><rect x="41" y="41" width="1" height="1"/><rect x="6" y="42" width="1" height="1"/><rect x="7" y="43" width="1" height="1"/><rect x="44" y="43" width="1" height="1"/><rect x="7" y="44" width="1" height="1"/><rect x="45" y="44" width="1" height="1"/><rect x="8" y="45" width="1" height="1"/><rect x="47" y="45" width="1" height="1"/><rect x="8" y="46" width="1" height="1"/><rect x="48" y="46" width="1" height="1"/><rect x="9" y="47" width="1" height="1"/><rect x="51" y="48" width="1" height="1"/><rect x="52" y="49" width="1" height="1"/><rect x="11" y="50" width="1" height="1"/><rect x="12" y="51" width="1" height="1"/></g><g fill="currentColor" fill-opacity="0.86"><rect x="32" y="3" width="1" height="1"/><rect x="38" y="4" width="2" height="1"/><rect x="32" y="5" width="1" height="1"/><rect x="41" y="5" width="2" height="1"/><rect x="25" y="6" width="15" height="1"/><rect x="43" y="6" width="2" height="1"/><rect x="22" y="7" width="21" height="1"/><rect x="45" y="7" width="2" height="1"/><rect x="20" y="8" width="25" height="1"/><rect x="47" y="8" width="2" height="1"/><rect x="18" y="9" width="29" height="1"/><rect x="48" y="9" width="2" height="1"/><rect x="16" y="10" width="35" height="1"/><rect x="15" y="11" width="35" height="1"/><rect x="51" y="11" width="2" height="1"/><rect x="14" y="12" width="37" height="1"/><rect x="52" y="12" width="2" height="1"/><rect x="13" y="13" width="39" height="1"/><rect x="53" y="13" width="1" height="1"/><rect x="12" y="14" width="41" height="1"/><rect x="54" y="14" width="1" height="1"/><rect x="11" y="15" width="13" height="1"/><rect x="25" y="15" width="27" height="1"/><rect x="54" y="15" width="1" height="1"/><rect x="10" y="16" width="12" height="1"/><rect x="27" y="16" width="24" height="1"/><rect x="10" y="17" width="12" height="1"/><rect x="27" y="17" width="23" height="1"/><rect x="9" y="18" width="12" height="1"/><rect x="28" y="18" width="20" height="1"/><rect x="9" y="19" width="13" height="1"/><rect x="27" y="19" width="20" height="1"/><rect x="8" y="20" width="14" height="1"/><rect x="27" y="20" width="18" height="1"/><rect x="8" y="21" width="16" height="1"/><rect x="25" y="21" width="19" height="1"/><rect x="7" y="22" width="36" height="1"/><rect x="7" y="23" width="34" height="1"/><rect x="7" y="24" width="33" height="1"/><rect x="6" y="25" width="33" height="1"/><rect x="6" y="26" width="31" height="1"/><rect x="6" y="27" width="30" height="1"/><rect x="6" y="28" width="29" height="1"/><rect x="6" y="29" width="27" height="1"/><rect x="6" y="30" width="26" height="1"/><rect x="6" y="31" width="25" height="1"/><rect x="3" y="32" width="1" height="1"/><rect x="5" y="32" width="25" height="1"/><rect x="6" y="33" width="25" height="1"/><rect x="32" y="33" width="1" height="1"/><rect x="6" y="34" width="26" height="1"/><rect x="33" y="34" width="2" height="1"/><rect x="6" y="35" width="27" height="1"/><rect x="34" y="35" width="2" height="1"/><rect x="6" y="36" width="31" height="1"/><rect x="6" y="37" width="30" height="1"/><rect x="37" y="37" width="2" height="1"/><rect x="4" y="38" width="1" height="1"/><rect x="6" y="38" width="31" height="1"/><rect x="38" y="38" width="2" height="1"/><rect x="4" y="39" width="1" height="1"/><rect x="6" y="39" width="35" height="1"/><rect x="7" y="40" width="33" height="1"/><rect x="41" y="40" width="2" height="1"/><rect x="5" y="41" width="1" height="1"/><rect x="7" y="41" width="34" height="1"/><rect x="42" y="41" width="2" height="1"/><rect x="5" y="42" width="1" height="1"/><rect x="7" y="42" width="38" height="1"/><rect x="6" y="43" width="1" height="1"/><rect x="8" y="43" width="36" height="1"/><rect x="45" y="43" width="2" height="1"/><rect x="6" y="44" width="1" height="1"/><rect x="8" y="44" width="37" height="1"/><rect x="46" y="44" width="2" height="1"/><rect x="7" y="45" width="1" height="1"/><rect x="9" y="45" width="38" height="1"/><rect x="48" y="45" width="2" height="1"/><rect x="7" y="46" width="1" height="1"/><rect x="9" y="46" width="39" height="1"/><rect x="49" y="46" width="2" height="1"/><rect x="8" y="47" width="1" height="1"/><rect x="10" y="47" width="42" height="1"/><rect x="8" y="48" width="43" height="1"/><rect x="52" y="48" width="2" height="1"/><rect x="9" y="49" width="43" height="1"/><rect x="53" y="49" width="2" height="1"/><rect x="10" y="50" width="1" height="1"/><rect x="12" y="50" width="41" height="1"/><rect x="54" y="50" width="1" height="1"/><rect x="11" y="51" width="1" height="1"/><rect x="13" y="51" width="39" height="1"/><rect x="11" y="52" width="2" height="1"/><rect x="14" y="52" width="37" height="1"/><rect x="12" y="53" width="2" height="1"/><rect x="15" y="53" width="35" height="1"/><rect x="14" y="54" width="35" height="1"/><rect x="15" y="55" width="2" height="1"/><rect x="18" y="55" width="29" height="1"/><rect x="16" y="56" width="2" height="1"/><rect x="20" y="56" width="25" height="1"/><rect x="18" y="57" width="2" height="1"/><rect x="22" y="57" width="21" height="1"/><rect x="20" y="58" width="2" height="1"/><rect x="25" y="58" width="15" height="1"/><rect x="22" y="59" width="2" height="1"/><rect x="32" y="59" width="1" height="1"/><rect x="25" y="60" width="2" height="1"/><rect x="32" y="61" width="1" height="1"/></g><g fill="currentColor" fill-opacity="0.5"><rect x="52" y="13" width="1" height="1"/><rect x="53" y="14" width="1" height="1"/><rect x="52" y="15" width="2" height="1"/><rect x="51" y="16" width="3" height="1"/><rect x="50" y="17" width="2" height="1"/><rect x="48" y="18" width="3" height="1"/><rect x="47" y="19" width="3" height="1"/><rect x="45" y="20" width="3" height="1"/><rect x="44" y="21" width="3" height="1"/><rect x="43" y="22" width="2" height="1"/><rect x="41" y="23" width="3" height="1"/><rect x="40" y="24" width="3" height="1"/><rect x="39" y="25" width="2" height="1"/><rect x="37" y="26" width="3" height="1"/><rect x="36" y="27" width="3" height="1"/><rect x="35" y="28" width="2" height="1"/><rect x="33" y="29" width="3" height="1"/><rect x="32" y="30" width="3" height="1"/><rect x="31" y="31" width="2" height="1"/><rect x="30" y="32" width="2" height="1"/><rect x="31" y="33" width="1" height="1"/><rect x="53" y="50" width="1" height="1"/><rect x="52" y="51" width="2" height="1"/><rect x="13" y="52" width="1" height="1"/><rect x="51" y="52" width="3" height="1"/><rect x="14" y="53" width="1" height="1"/><rect x="50" y="53" width="3" height="1"/><rect x="49" y="54" width="2" height="1"/><rect x="17" y="55" width="1" height="1"/><rect x="47" y="55" width="3" height="1"/><rect x="18" y="56" width="2" height="1"/><rect x="45" y="56" width="4" height="1"/><rect x="20" y="57" width="2" height="1"/><rect x="43" y="57" width="4" height="1"/><rect x="22" y="58" width="3" height="1"/><rect x="40" y="58" width="5" height="1"/><rect x="24" y="59" width="8" height="1"/><rect x="33" y="59" width="10" height="1"/><rect x="27" y="60" width="13" height="1"/></g></svg>